<svg width="328" height="328" viewBox="0 0 328 328" fill="none" xmlns="http://www.w3.org/2000/svg">
<g clip-path="url(#clip0_489_384)">
<rect width="328" height="328" rx="164" fill="#F6F7FF"/>
<path d="M247.227 222.152C243.003 222.152 239.387 221.256 236.379 219.464C233.435 217.608 231.195 215.048 229.659 211.784C228.123 208.52 227.355 204.712 227.355 200.36V93.584H241.755V199.208C241.755 201.192 242.139 202.952 242.907 204.488C243.739 205.96 244.891 207.112 246.363 207.944C247.835 208.776 249.499 209.192 251.355 209.192C253.275 209.192 254.939 208.776 256.347 207.944C257.819 207.112 258.939 205.96 259.707 204.488C260.539 202.952 260.955 201.192 260.955 199.208V93.584H275.355V221H261.915V210.632L262.683 212.936C261.467 216.072 259.483 218.408 256.731 219.944C254.043 221.416 250.875 222.152 247.227 222.152Z" fill="#FC6A38"/>
<path d="M188.489 222.152C183.369 222.152 178.793 220.936 174.761 218.504C170.729 216.072 167.529 212.776 165.161 208.616C162.857 204.456 161.705 199.848 161.705 194.792C161.705 189.672 162.889 185.064 165.257 180.968C167.625 176.808 170.825 173.512 174.857 171.08C178.889 168.648 183.401 167.432 188.393 167.432C192.233 167.432 195.625 168.168 198.569 169.64C201.577 171.048 203.945 173.064 205.673 175.688L203.465 178.568V145.328H217.865V221H204.425V211.4L205.769 214.376C203.977 216.936 201.545 218.888 198.473 220.232C195.401 221.512 192.073 222.152 188.489 222.152ZM190.217 209.192C192.841 209.192 195.145 208.584 197.129 207.368C199.113 206.152 200.649 204.456 201.737 202.28C202.889 200.104 203.465 197.608 203.465 194.792C203.465 191.976 202.889 189.48 201.737 187.304C200.649 185.128 199.113 183.432 197.129 182.216C195.145 181 192.841 180.392 190.217 180.392C187.593 180.392 185.225 181.032 183.113 182.312C181.065 183.528 179.465 185.224 178.313 187.4C177.161 189.512 176.585 191.976 176.585 194.792C176.585 197.608 177.161 200.104 178.313 202.28C179.465 204.456 181.065 206.152 183.113 207.368C185.225 208.584 187.593 209.192 190.217 209.192Z" fill="#FFBC2A"/>
<path d="M125.165 222.152C120.941 222.152 117.325 221.256 114.317 219.464C111.373 217.608 109.133 215.048 107.597 211.784C106.061 208.52 105.293 204.712 105.293 200.36V168.584H119.693V199.208C119.693 201.192 120.077 202.952 120.845 204.488C121.677 205.96 122.829 207.112 124.301 207.944C125.773 208.776 127.437 209.192 129.293 209.192C131.213 209.192 132.877 208.776 134.285 207.944C135.757 207.112 136.877 205.96 137.645 204.488C138.477 202.952 138.893 201.192 138.893 199.208V168.584H153.293V221H139.853V210.632L140.621 212.936C139.405 216.072 137.421 218.408 134.669 219.944C131.981 221.416 128.813 222.152 125.165 222.152Z" fill="#0823CC"/>
<path d="M71.144 221V162.44H53V149.48H103.88V162.44H86.024V221H71.144Z" fill="#0823CC"/>
<path d="M162.279 164V92.48H185.607C193.351 92.48 200.071 94.016 205.767 97.088C211.463 100.16 215.879 104.384 219.015 109.76C222.151 115.136 223.719 121.28 223.719 128.192C223.719 135.104 222.151 141.28 219.015 146.72C215.879 152.096 211.463 156.32 205.767 159.392C200.071 162.464 193.351 164 185.607 164H162.279ZM177.159 151.04H185.991C190.663 151.04 194.695 150.112 198.087 148.256C201.479 146.336 204.103 143.68 205.959 140.288C207.879 136.832 208.839 132.8 208.839 128.192C208.839 123.52 207.879 119.488 205.959 116.096C204.103 112.704 201.479 110.08 198.087 108.224C194.695 106.368 190.663 105.44 185.991 105.44H177.159V151.04Z" fill="#FC6A38"/>
</g>
<defs>
<clipPath id="clip0_489_384">
<rect width="328" height="328" fill="white"/>
</clipPath>
</defs>
</svg>
